<svg xmlns="http://www.w3.org/2000/svg" viewBox="0 0 128 128"><rect x="8" y="8" width="112" height="112" rx="28" fill="#2563eb"/><path d="M35 42h58v44H35z" fill="#fff" opacity=".98"/><path d="M76 54h17v20H76c-6 0-10-4-10-10s4-10 10-10Z" fill="#dbeafe"/><circle cx="76" cy="64" r="3.5" fill="#2563eb"/><path d="M45 32h38l7 10H38z" fill="#bfdbfe"/></svg><svg xmlns="http://www.w3.org/2000/svg" viewBox="0 0 128 128"><rect x="8" y="8" width="112" height="112" rx="28" fill="#2563eb"/><path d="M35 42h58v44H35z" fill="#fff" opacity=".98"/><path d="M76 54h17v20H76c-6 0-10-4-10-10s4-10 10-10Z" fill="#dbeafe"/><circle cx="76" cy="64" r="3.5" fill="#2563eb"/><path d="M45 32h38l7 10H38z" fill="#bfdbfe"/></svg>
